<?xml version="1.0" encoding="UTF-8"?>
<svg xmlns="http://www.w3.org/2000/svg" version="1.1" viewBox="0 0 31.9 32">
  <!-- Generator: Adobe Illustrator 28.7.3, SVG Export Plug-In . SVG Version: 1.2.0 Build 164)  -->
  <g>
    <g id="Layer_1">
      <path d="M3.5,8c1.2-2.3,2.9-4.1,5.2-5.3,2.2-1.3,4.8-1.9,7.7-1.9s6.8,1,9.3,3c2.5,2,4.1,4.7,4.9,8h-8.9c-.5-1.1-1.3-2-2.2-2.6s-2-.9-3.3-.9c-1.9,0-3.4.7-4.6,2-1.1,1.4-1.7,3.2-1.7,5.4s.6,4.1,1.7,5.5c1.1,1.4,2.7,2,4.6,2s2.3-.3,3.3-.9c.9-.6,1.7-1.4,2.2-2.6h8.9c-.7,3.4-2.4,6.1-4.9,8s-5.6,3-9.3,3-5.5-.6-7.7-1.9c-2.2-1.3-4-3.1-5.2-5.3-1.2-2.3-1.8-4.9-1.8-7.8s.6-5.5,1.8-7.8Z"/>
    </g>
  </g>
</svg>